**ABCDEFGHIJKLMNOPQRSTUVWXYZabcdefghijklmnopqrstuvwxyz**************************
**PARASOLID !"#$%&'()*+,-./:;<=>?@[\]^_`{|}~0123456789**************************
**PART1;
MC=Unknown;
MC_MODEL=unknown;
MC_ID=ROWENS-ANTEC;
OS=windows_64;
OS_RELEASE=Build 7601 Service Pack 1.0;
FRU=PRO/INTERFACE BY PTC, 2014500;
APPL=PRO/ENGINEER BY PTC, 2014500;
SITE=;
USER=rowens;
FORMAT=text;
GUISE=transmit;
KEY=SUPPORT_PLATES_FEA;
FILE=support_plates_fea.x_t;
DATE=07-14-2015;
**PART2;
SCH=SCH_1000149_10004;
USFLD_SIZE=0;
**PART3;
**END_OF_HEADER*****************************************************************
T51 : TRANSMIT FILE created by modeller version 100014917 SCH_1000149_100040 10
 1 6 5 7 0 0 0 0 0 1e3 1e-8 0 0 0 1 0 1 390 79 13 2 SDL/TYSA_NAME80 1 3 0 2
 8017 0 0 0 0 0 0 0 0 TTTTTTTTTTTTT3 84 18 4 SUPPORT_PLATES_FEA81 1 5 1 3 1 0 0
 0 0 4 74 20 6 1 0 5 0 0 0 0 0 0 0 0 0 0 0 0 0 0 0 0 0 0 0 70 7 0 1 0 0 4 1 20
 4 6 6 1 T11 8 2 0 1 9 0 1 0 105 0 0 12 9 64 11 13 0 0 0 0 1e3 1e-8 8 0 0 1 0 1
 1 31 98 30 49 34 95 50 84 7 10 SUPPORT81 1 11 1 3 9 18 0 0 0 10 74 20 12 2 0
 11 18 0 0 0 0 0 0 0 0 0 0 0 0 0 0 0 0 0 0 70 13 0 9 0 0 4 2 20 4 12 12 1 T79
 16 14 SDL/TYSA_DENSITY80 2 15 0 14 8004 0 0 0 0 3 5 0 0 FFTFFFFFFFFFF2 3 83 1
 16 7.82704113235845e3 84 7 17 KG/CU M81 2 18 2 15 9 0 11 0 0 16 17 30 19 3 0
 54 0 20 0 +0e0 2e-1 -8e-1 0e0 -1e0 0e0 30 20 4 0 56 19 21 0 +0e0 0e0 -8e-1 1e0
 0e0 0e0 30 21 5 0 58 20 22 0 +2e-1 0e0 -8e-1 0e0 1e0 0e0 30 22 6 0 60 21 23 0 +
2e-1 2e-1 -8e-1 -1e0 0e0 0e0 30 23 7 0 70 22 24 0 +0e0 0e0 0e0 0e0 0e0 -1e0 30
 24 8 0 66 23 25 0 +0e0 2e-1 0e0 0e0 0e0 -1e0 30 25 9 0 76 24 26 0 +2e-1 2e-1
 0e0 0e0 0e0 -1e0 30 26 10 0 85 25 27 0 +2e-1 0e0 0e0 0e0 0e0 -1e0 30 27 11 0
 68 26 28 0 +0e0 2e-1 0e0 0e0 -1e0 0e0 30 28 12 0 78 27 29 0 +2e-1 2e-1 0e0
 -1e0 0e0 0e0 30 29 13 0 87 28 30 0 +2e-1 0e0 0e0 0e0 1e0 0e0 30 30 14 0 95 29
 0 0 +0e0 0e0 0e0 1e0 0e0 0e0 13 31 15 0 9 0 99 0 0 32 0 19 32 64 0 9 0 34 31 S
13 33 16 0 0 0 0 0 0 34 99 19 34 17 0 9 32 0 33 V29 35 18 0 36 0 37 0e0 2e-1
 -8e-1 18 36 19 0 75 38 0 35 ?9 29 37 20 0 38 35 39 0e0 0e0 -8e-1 18 38 21 0 94
 40 36 37 ?9 29 39 22 0 40 37 41 2e-1 2e-1 -8e-1 18 40 23 0 84 42 38 39 ?9 29
 41 24 0 42 39 43 2e-1 0e0 -8e-1 18 42 25 0 93 44 40 41 ?9 29 43 26 0 44 41 45
 0e0 2e-1 0e0 18 44 27 0 102 46 42 43 ?9 29 45 28 0 46 43 47 0e0 0e0 0e0 18 46
 29 0 101 48 44 45 ?9 29 47 30 0 48 45 49 2e-1 2e-1 0e0 18 48 31 0 103 50 46 47
 ?9 29 49 32 0 50 47 0 2e-1 0e0 0e0 18 50 33 0 104 0 48 49 ?9 50 51 34 0 52 0
 62 0 +0e0 0e0 -8e-1 0e0 0e0 -1e0 1e0 0e0 0e0 14 52 35 0 ?0 63 53 31 51 +0 0 0
 63 33 15 53 36 0 61 52 0 16 54 37 0 ?65 56 0 19 0 0 9 17 55 53 61 57 36 65 54
 0 0 -16 56 38 0 ?93 58 54 20 0 0 9 17 57 53 55 59 38 93 56 0 0 -16 58 39 0 ?84
 60 56 21 0 0 9 17 59 53 57 61 42 84 58 0 0 -16 60 40 0 ?75 66 58 22 0 0 9 17
 61 53 59 55 40 75 60 0 0 -50 62 41 0 63 51 72 0 +0e0 0e0 -8e-1 -1e0 0e0 0e0
 0e0 1e0 0e0 14 63 42 0 ?52 73 64 31 62 +0 0 52 73 33 15 64 43 0 71 63 0 17 65
 64 71 67 38 55 54 0 57 +16 66 44 0 ?67 68 60 24 0 0 9 17 67 64 65 69 36 80 66
 0 55 +16 68 45 0 ?101 70 66 27 0 0 9 17 69 64 67 71 44 101 68 0 0 -16 70 46 0 ?
94 76 68 23 0 0 9 17 71 64 69 65 46 94 70 0 0 -50 72 47 0 73 62 81 0 +0e0 2e-1
 -8e-1 0e0 1e0 0e0 1e0 0e0 0e0 14 73 48 0 ?63 82 74 31 72 +0 0 63 82 33 15 74
 49 0 80 73 0 17 75 74 80 77 36 61 60 0 67 +16 76 50 0 ?77 78 70 25 0 0 9 17 77
 74 75 79 40 89 76 0 61 +16 78 51 0 ?102 85 76 28 0 0 9 17 79 74 77 80 48 102
 78 0 0 -17 80 74 79 75 44 67 66 0 69 -50 81 52 0 82 72 90 0 +2e-1 2e-1 -8e-1
 1e0 0e0 0e0 0e0 -1e0 0e0 14 82 53 0 ?73 91 83 31 81 +0 0 73 91 33 15 83 54 0
 89 82 0 17 84 83 89 86 40 59 58 0 77 +16 85 55 0 ?86 87 78 26 0 0 9 17 86 83
 84 88 42 97 85 0 59 +16 87 56 0 ?103 95 85 29 0 0 9 17 88 83 86 89 50 103 87 0
 0 -17 89 83 88 84 48 77 76 0 79 -50 90 57 0 91 81 98 0 +2e-1 0e0 -8e-1 0e0
 -1e0 0e0 -1e0 0e0 0e0 14 91 58 0 ?82 99 92 31 90 +0 0 82 99 33 15 92 59 0 97
 91 0 17 93 92 97 94 42 57 56 0 86 +17 94 92 93 96 38 71 70 0 65 +16 95 60 0 ?
104 0 87 30 0 0 9 17 96 92 94 97 46 104 95 0 71 -17 97 92 96 93 50 86 85 0 88 -
50 98 61 0 99 90 0 0 +0e0 0e0 0e0 0e0 0e0 -1e0 1e0 0e0 0e0 14 99 62 0 ?91 0 100
 31 98 -0 0 91 0 33 15 100 63 0 104 99 0 17 101 100 104 102 46 69 68 0 96 +17
 102 100 101 103 44 79 78 0 80 +17 103 100 102 104 48 88 87 0 89 +17 104 100
 103 101 50 96 95 0 97 +11 105 3 0 1 106 0 1 8 200 0 0 12 106 64 108 110 0 0 0
 0 1e3 1e-8 105 0 0 1 0 1 1 126 193 125 144 129 190 145 84 5 107 PLATE81 1 108
 1 3 106 113 0 0 0 107 74 20 109 2 0 108 113 0 0 0 0 0 0 0 0 0 0 0 0 0 0 0 0 0
 0 70 110 0 106 0 0 4 2 20 4 109 109 1 T83 1 111 7.82704113235845e3 84 7 112 KG/
CU M81 2 113 2 15 106 0 108 0 0 111 112 30 114 3 0 149 0 115 0 +0e0 2.2e0 -8e-1
 0e0 -1e0 0e0 30 115 4 0 151 114 116 0 +0e0 2e-1 -8e-1 1e0 0e0 0e0 30 116 5 0
 153 115 117 0 +2e-1 2e-1 -8e-1 0e0 1e0 0e0 30 117 6 0 155 116 118 0 +2e-1
 2.2e0 -8e-1 -1e0 0e0 0e0 30 118 7 0 165 117 119 0 +0e0 2e-1 -7e-1 0e0 0e0 -1e0
 30 119 8 0 161 118 120 0 +0e0 2.2e0 -7e-1 0e0 0e0 -1e0 30 120 9 0 171 119 121
 0 +2e-1 2.2e0 -7e-1 0e0 0e0 -1e0 30 121 10 0 180 120 122 0 +2e-1 2e-1 -7e-1
 0e0 0e0 -1e0 30 122 11 0 163 121 123 0 +0e0 2.2e0 -7e-1 0e0 -1e0 0e0 30 123 12
 0 173 122 124 0 +2e-1 2.2e0 -7e-1 -1e0 0e0 0e0 30 124 13 0 182 123 125 0 +2e-1
 2e-1 -7e-1 0e0 1e0 0e0 30 125 14 0 190 124 0 0 +0e0 2e-1 -7e-1 1e0 0e0 0e0 13
 126 15 0 106 0 194 0 0 127 0 19 127 64 0 106 0 129 126 S13 128 16 0 0 0 0 0 0
 129 194 19 129 17 0 106 127 0 128 V29 130 18 0 131 0 132 0e0 2.2e0 -8e-1 18
 131 19 0 170 133 0 130 ?106 29 132 20 0 133 130 134 0e0 2e-1 -8e-1 18 133 21 0
 189 135 131 132 ?106 29 134 22 0 135 132 136 2e-1 2.2e0 -8e-1 18 135 23 0 179
 137 133 134 ?106 29 136 24 0 137 134 138 2e-1 2e-1 -8e-1 18 137 25 0 188 139
 135 136 ?106 29 138 26 0 139 136 140 0e0 2.2e0 -7e-1 18 139 27 0 197 141 137
 138 ?106 29 140 28 0 141 138 142 0e0 2e-1 -7e-1 18 141 29 0 196 143 139 140 ?
106 29 142 30 0 143 140 144 2e-1 2.2e0 -7e-1 18 143 31 0 198 145 141 142 ?106
 29 144 32 0 145 142 0 2e-1 2e-1 -7e-1 18 145 33 0 199 0 143 144 ?106 50 146 34
 0 147 0 157 0 +0e0 2e-1 -8e-1 0e0 0e0 -1e0 1e0 0e0 0e0 14 147 35 0 ?0 158 148
 126 146 +0 0 0 158 128 15 148 36 0 156 147 0 16 149 37 0 ?160 151 0 114 0 0
 106 17 150 148 156 152 131 160 149 0 0 -16 151 38 0 ?188 153 149 115 0 0 106
 17 152 148 150 154 133 188 151 0 0 -16 153 39 0 ?179 155 151 116 0 0 106 17
 154 148 152 156 137 179 153 0 0 -16 155 40 0 ?170 161 153 117 0 0 106 17 156
 148 154 150 135 170 155 0 0 -50 157 41 0 158 146 167 0 +0e0 2e-1 -8e-1 -1e0
 0e0 0e0 0e0 1e0 0e0 14 158 42 0 ?147 168 159 126 157 +0 0 147 168 128 15 159
 43 0 166 158 0 17 160 159 166 162 133 150 149 0 152 +16 161 44 0 ?162 163 155
 119 0 0 106 17 162 159 160 164 131 175 161 0 150 +16 163 45 0 ?196 165 161 122
 0 0 106 17 164 159 162 166 139 196 163 0 0 -16 165 46 0 ?189 171 163 118 0 0
 106 17 166 159 164 160 141 189 165 0 0 -50 167 47 0 168 157 176 0 +0e0 2.2e0
 -8e-1 0e0 1e0 0e0 1e0 0e0 0e0 14 168 48 0 ?158 177 169 126 167 +0 0 158 177
 128 15 169 49 0 175 168 0 17 170 169 175 172 131 156 155 0 162 +16 171 50 0 ?
172 173 165 120 0 0 106 17 172 169 170 174 135 184 171 0 156 +16 173 51 0 ?197
 180 171 123 0 0 106 17 174 169 172 175 143 197 173 0 0 -17 175 169 174 170 139
 162 161 0 164 -50 176 52 0 177 167 185 0 +2e-1 2.2e0 -8e-1 1e0 0e0 0e0 0e0
 -1e0 0e0 14 177 53 0 ?168 186 178 126 176 +0 0 168 186 128 15 178 54 0 184 177
 0 17 179 178 184 181 135 154 153 0 172 +16 180 55 0 ?181 182 173 121 0 0 106
 17 181 178 179 183 137 192 180 0 154 +16 182 56 0 ?198 190 180 124 0 0 106 17
 183 178 181 184 145 198 182 0 0 -17 184 178 183 179 143 172 171 0 174 -50 185
 57 0 186 176 193 0 +2e-1 2e-1 -8e-1 0e0 -1e0 0e0 -1e0 0e0 0e0 14 186 58 0 ?177
 194 187 126 185 +0 0 177 194 128 15 187 59 0 192 186 0 17 188 187 192 189 137
 152 151 0 181 +17 189 187 188 191 133 166 165 0 160 +16 190 60 0 ?199 0 182
 125 0 0 106 17 191 187 189 192 141 199 190 0 166 -17 192 187 191 188 145 181
 180 0 183 -50 193 61 0 194 185 0 0 +0e0 2e-1 -7e-1 0e0 0e0 -1e0 1e0 0e0 0e0 14
 194 62 0 ?186 0 195 126 193 -0 0 186 0 128 15 195 63 0 199 194 0 17 196 195
 199 197 141 164 163 0 191 +17 197 195 196 198 139 174 173 0 175 +17 198 195
 197 199 143 183 182 0 184 +17 199 195 198 196 145 191 190 0 192 +11 200 4 0 1
 201 0 1 105 295 0 0 12 201 64 203 205 0 0 0 0 1e3 1e-8 200 0 0 1 0 1 1 221 288
 220 239 224 285 240 84 5 202 PLATE81 1 203 1 3 201 208 0 0 0 202 74 20 204 2 0
 203 208 0 0 0 0 0 0 0 0 0 0 0 0 0 0 0 0 0 0 70 205 0 201 0 0 4 2 20 4 204 204
 1 T83 1 206 7.82704113235845e3 84 7 207 KG/CU M81 2 208 2 15 201 0 203 0 0 206
 207 30 209 3 0 244 0 210 0 +0e0 2.2e0 -7e-1 0e0 -1e0 0e0 30 210 4 0 246 209
 211 0 +0e0 2e-1 -7e-1 1e0 0e0 0e0 30 211 5 0 248 210 212 0 +2e-1 2e-1 -7e-1
 0e0 1e0 0e0 30 212 6 0 250 211 213 0 +2e-1 2.2e0 -7e-1 -1e0 0e0 0e0 30 213 7 0
 260 212 214 0 +0e0 2e-1 -6e-1 0e0 0e0 -1e0 30 214 8 0 256 213 215 0 +0e0 2.2e0
 -6e-1 0e0 0e0 -1e0 30 215 9 0 266 214 216 0 +2e-1 2.2e0 -6e-1 0e0 0e0 -1e0 30
 216 10 0 275 215 217 0 +2e-1 2e-1 -6e-1 0e0 0e0 -1e0 30 217 11 0 258 216 218 0
 +0e0 2.2e0 -6e-1 0e0 -1e0 0e0 30 218 12 0 268 217 219 0 +2e-1 2.2e0 -6e-1 -1e0
 0e0 0e0 30 219 13 0 277 218 220 0 +2e-1 2e-1 -6e-1 0e0 1e0 0e0 30 220 14 0 285
 219 0 0 +0e0 2e-1 -6e-1 1e0 0e0 0e0 13 221 15 0 201 0 289 0 0 222 0 19 222 64
 0 201 0 224 221 S13 223 16 0 0 0 0 0 0 224 289 19 224 17 0 201 222 0 223 V29
 225 18 0 226 0 227 0e0 2.2e0 -7e-1 18 226 19 0 265 228 0 225 ?201 29 227 20 0
 228 225 229 0e0 2e-1 -7e-1 18 228 21 0 284 230 226 227 ?201 29 229 22 0 230
 227 231 2e-1 2.2e0 -7e-1 18 230 23 0 274 232 228 229 ?201 29 231 24 0 232 229
 233 2e-1 2e-1 -7e-1 18 232 25 0 283 234 230 231 ?201 29 233 26 0 234 231 235
 0e0 2.2e0 -6e-1 18 234 27 0 292 236 232 233 ?201 29 235 28 0 236 233 237 0e0
 2e-1 -6e-1 18 236 29 0 291 238 234 235 ?201 29 237 30 0 238 235 239 2e-1 2.2e0
 -6e-1 18 238 31 0 293 240 236 237 ?201 29 239 32 0 240 237 0 2e-1 2e-1 -6e-1
 18 240 33 0 294 0 238 239 ?201 50 241 34 0 242 0 252 0 +0e0 2e-1 -7e-1 0e0 0e0
 -1e0 1e0 0e0 0e0 14 242 35 0 ?0 253 243 221 241 +0 0 0 253 223 15 243 36 0 251
 242 0 16 244 37 0 ?255 246 0 209 0 0 201 17 245 243 251 247 226 255 244 0 0 -
16 246 38 0 ?283 248 244 210 0 0 201 17 247 243 245 249 228 283 246 0 0 -16 248
 39 0 ?274 250 246 211 0 0 201 17 249 243 247 251 232 274 248 0 0 -16 250 40 0 ?
265 256 248 212 0 0 201 17 251 243 249 245 230 265 250 0 0 -50 252 41 0 253 241
 262 0 +0e0 2e-1 -7e-1 -1e0 0e0 0e0 0e0 1e0 0e0 14 253 42 0 ?242 263 254 221
 252 +0 0 242 263 223 15 254 43 0 261 253 0 17 255 254 261 257 228 245 244 0
 247 +16 256 44 0 ?257 258 250 214 0 0 201 17 257 254 255 259 226 270 256 0 245
 +16 258 45 0 ?291 260 256 217 0 0 201 17 259 254 257 261 234 291 258 0 0 -16
 260 46 0 ?284 266 258 213 0 0 201 17 261 254 259 255 236 284 260 0 0 -50 262
 47 0 263 252 271 0 +0e0 2.2e0 -7e-1 0e0 1e0 0e0 1e0 0e0 0e0 14 263 48 0 ?253
 272 264 221 262 +0 0 253 272 223 15 264 49 0 270 263 0 17 265 264 270 267 226
 251 250 0 257 +16 266 50 0 ?267 268 260 215 0 0 201 17 267 264 265 269 230 279
 266 0 251 +16 268 51 0 ?292 275 266 218 0 0 201 17 269 264 267 270 238 292 268
 0 0 -17 270 264 269 265 234 257 256 0 259 -50 271 52 0 272 262 280 0 +2e-1
 2.2e0 -7e-1 1e0 0e0 0e0 0e0 -1e0 0e0 14 272 53 0 ?263 281 273 221 271 +0 0 263
 281 223 15 273 54 0 279 272 0 17 274 273 279 276 230 249 248 0 267 +16 275 55
 0 ?276 277 268 216 0 0 201 17 276 273 274 278 232 287 275 0 249 +16 277 56 0 ?
293 285 275 219 0 0 201 17 278 273 276 279 240 293 277 0 0 -17 279 273 278 274
 238 267 266 0 269 -50 280 57 0 281 271 288 0 +2e-1 2e-1 -7e-1 0e0 -1e0 0e0
 -1e0 0e0 0e0 14 281 58 0 ?272 289 282 221 280 +0 0 272 289 223 15 282 59 0 287
 281 0 17 283 282 287 284 232 247 246 0 276 +17 284 282 283 286 228 261 260 0
 255 +16 285 60 0 ?294 0 277 220 0 0 201 17 286 282 284 287 236 294 285 0 261 -
17 287 282 286 283 240 276 275 0 278 -50 288 61 0 289 280 0 0 +0e0 2e-1 -6e-1
 0e0 0e0 -1e0 1e0 0e0 0e0 14 289 62 0 ?281 0 290 221 288 -0 0 281 0 223 15 290
 63 0 294 289 0 17 291 290 294 292 236 259 258 0 286 +17 292 290 291 293 234
 269 268 0 270 +17 293 290 292 294 238 278 277 0 279 +17 294 290 293 291 240
 286 285 0 287 +11 295 5 0 1 296 0 1 200 390 0 0 12 296 64 298 300 0 0 0 0 1e3
 1e-8 295 0 0 1 0 1 1 316 383 315 334 319 380 335 84 5 297 PLATE81 1 298 1 3
 296 303 0 0 0 297 74 20 299 2 0 298 303 0 0 0 0 0 0 0 0 0 0 0 0 0 0 0 0 0 0 70
 300 0 296 0 0 4 2 20 4 299 299 1 T83 1 301 7.82704113235845e3 84 7 302 KG/CU M
81 2 303 2 15 296 0 298 0 0 301 302 30 304 3 0 339 0 305 0 +0e0 2.2e0 -6e-1 0e0
 -1e0 0e0 30 305 4 0 341 304 306 0 +0e0 2e-1 -6e-1 1e0 0e0 0e0 30 306 5 0 343
 305 307 0 +2e-1 2e-1 -6e-1 0e0 1e0 0e0 30 307 6 0 345 306 308 0 +2e-1 2.2e0
 -6e-1 -1e0 0e0 0e0 30 308 7 0 355 307 309 0 +0e0 2e-1 -5e-1 0e0 0e0 -1e0 30
 309 8 0 351 308 310 0 +0e0 2.2e0 -5e-1 0e0 0e0 -1e0 30 310 9 0 361 309 311 0 +
2e-1 2.2e0 -5e-1 0e0 0e0 -1e0 30 311 10 0 370 310 312 0 +2e-1 2e-1 -5e-1 0e0
 0e0 -1e0 30 312 11 0 353 311 313 0 +0e0 2.2e0 -5e-1 0e0 -1e0 0e0 30 313 12 0
 363 312 314 0 +2e-1 2.2e0 -5e-1 -1e0 0e0 0e0 30 314 13 0 372 313 315 0 +2e-1
 2e-1 -5e-1 0e0 1e0 0e0 30 315 14 0 380 314 0 0 +0e0 2e-1 -5e-1 1e0 0e0 0e0 13
 316 15 0 296 0 384 0 0 317 0 19 317 64 0 296 0 319 316 S13 318 16 0 0 0 0 0 0
 319 384 19 319 17 0 296 317 0 318 V29 320 18 0 321 0 322 0e0 2.2e0 -6e-1 18
 321 19 0 360 323 0 320 ?296 29 322 20 0 323 320 324 0e0 2e-1 -6e-1 18 323 21 0
 379 325 321 322 ?296 29 324 22 0 325 322 326 2e-1 2.2e0 -6e-1 18 325 23 0 369
 327 323 324 ?296 29 326 24 0 327 324 328 2e-1 2e-1 -6e-1 18 327 25 0 378 329
 325 326 ?296 29 328 26 0 329 326 330 0e0 2.2e0 -5e-1 18 329 27 0 387 331 327
 328 ?296 29 330 28 0 331 328 332 0e0 2e-1 -5e-1 18 331 29 0 386 333 329 330 ?
296 29 332 30 0 333 330 334 2e-1 2.2e0 -5e-1 18 333 31 0 388 335 331 332 ?296
 29 334 32 0 335 332 0 2e-1 2e-1 -5e-1 18 335 33 0 389 0 333 334 ?296 50 336 34
 0 337 0 347 0 +0e0 2e-1 -6e-1 0e0 0e0 -1e0 1e0 0e0 0e0 14 337 35 0 ?0 348 338
 316 336 +0 0 0 348 318 15 338 36 0 346 337 0 16 339 37 0 ?350 341 0 304 0 0
 296 17 340 338 346 342 321 350 339 0 0 -16 341 38 0 ?378 343 339 305 0 0 296
 17 342 338 340 344 323 378 341 0 0 -16 343 39 0 ?369 345 341 306 0 0 296 17
 344 338 342 346 327 369 343 0 0 -16 345 40 0 ?360 351 343 307 0 0 296 17 346
 338 344 340 325 360 345 0 0 -50 347 41 0 348 336 357 0 +0e0 2e-1 -6e-1 -1e0
 0e0 0e0 0e0 1e0 0e0 14 348 42 0 ?337 358 349 316 347 +0 0 337 358 318 15 349
 43 0 356 348 0 17 350 349 356 352 323 340 339 0 342 +16 351 44 0 ?352 353 345
 309 0 0 296 17 352 349 350 354 321 365 351 0 340 +16 353 45 0 ?386 355 351 312
 0 0 296 17 354 349 352 356 329 386 353 0 0 -16 355 46 0 ?379 361 353 308 0 0
 296 17 356 349 354 350 331 379 355 0 0 -50 357 47 0 358 347 366 0 +0e0 2.2e0
 -6e-1 0e0 1e0 0e0 1e0 0e0 0e0 14 358 48 0 ?348 367 359 316 357 +0 0 348 367
 318 15 359 49 0 365 358 0 17 360 359 365 362 321 346 345 0 352 +16 361 50 0 ?
362 363 355 310 0 0 296 17 362 359 360 364 325 374 361 0 346 +16 363 51 0 ?387
 370 361 313 0 0 296 17 364 359 362 365 333 387 363 0 0 -17 365 359 364 360 329
 352 351 0 354 -50 366 52 0 367 357 375 0 +2e-1 2.2e0 -6e-1 1e0 0e0 0e0 0e0
 -1e0 0e0 14 367 53 0 ?358 376 368 316 366 +0 0 358 376 318 15 368 54 0 374 367
 0 17 369 368 374 371 325 344 343 0 362 +16 370 55 0 ?371 372 363 311 0 0 296
 17 371 368 369 373 327 382 370 0 344 +16 372 56 0 ?388 380 370 314 0 0 296 17
 373 368 371 374 335 388 372 0 0 -17 374 368 373 369 333 362 361 0 364 -50 375
 57 0 376 366 383 0 +2e-1 2e-1 -6e-1 0e0 -1e0 0e0 -1e0 0e0 0e0 14 376 58 0 ?367
 384 377 316 375 +0 0 367 384 318 15 377 59 0 382 376 0 17 378 377 382 379 327
 342 341 0 371 +17 379 377 378 381 323 356 355 0 350 +16 380 60 0 ?389 0 372
 315 0 0 296 17 381 377 379 382 331 389 380 0 356 -17 382 377 381 378 335 371
 370 0 373 -50 383 61 0 384 375 0 0 +0e0 2e-1 -5e-1 0e0 0e0 -1e0 1e0 0e0 0e0 14
 384 62 0 ?376 0 385 316 383 -0 0 376 0 318 15 385 63 0 389 384 0 17 386 385
 389 387 331 354 353 0 381 +17 387 385 386 388 329 364 363 0 365 +17 388 385
 387 389 333 373 372 0 374 +17 389 385 388 386 335 381 380 0 382 +11 390 6 0 1
 391 0 1 295 0 0 0 12 391 64 393 395 0 0 0 0 1e3 1e-8 390 0 0 1 0 1 1 411 478
 410 429 414 475 430 84 5 392 PLATE81 1 393 1 3 391 398 0 0 0 392 74 20 394 2 0
 393 398 0 0 0 0 0 0 0 0 0 0 0 0 0 0 0 0 0 0 70 395 0 391 0 0 4 2 20 4 394 394
 1 T83 1 396 7.82704113235845e3 84 7 397 KG/CU M81 2 398 2 15 391 0 393 0 0 396
 397 30 399 3 0 434 0 400 0 +0e0 2.2e0 -5e-1 0e0 -1e0 0e0 30 400 4 0 436 399
 401 0 +0e0 2e-1 -5e-1 1e0 0e0 0e0 30 401 5 0 438 400 402 0 +2e-1 2e-1 -5e-1
 0e0 1e0 0e0 30 402 6 0 440 401 403 0 +2e-1 2.2e0 -5e-1 -1e0 0e0 0e0 30 403 7 0
 450 402 404 0 +0e0 2e-1 -4e-1 0e0 0e0 -1e0 30 404 8 0 446 403 405 0 +0e0 2.2e0
 -4e-1 0e0 0e0 -1e0 30 405 9 0 456 404 406 0 +2e-1 2.2e0 -4e-1 0e0 0e0 -1e0 30
 406 10 0 465 405 407 0 +2e-1 2e-1 -4e-1 0e0 0e0 -1e0 30 407 11 0 448 406 408 0
 +0e0 2.2e0 -4e-1 0e0 -1e0 0e0 30 408 12 0 458 407 409 0 +2e-1 2.2e0 -4e-1 -1e0
 0e0 0e0 30 409 13 0 467 408 410 0 +2e-1 2e-1 -4e-1 0e0 1e0 0e0 30 410 14 0 475
 409 0 0 +0e0 2e-1 -4e-1 1e0 0e0 0e0 13 411 15 0 391 0 479 0 0 412 0 19 412 64
 0 391 0 414 411 S13 413 16 0 0 0 0 0 0 414 479 19 414 17 0 391 412 0 413 V29
 415 18 0 416 0 417 0e0 2.2e0 -5e-1 18 416 19 0 455 418 0 415 ?391 29 417 20 0
 418 415 419 0e0 2e-1 -5e-1 18 418 21 0 474 420 416 417 ?391 29 419 22 0 420
 417 421 2e-1 2.2e0 -5e-1 18 420 23 0 464 422 418 419 ?391 29 421 24 0 422 419
 423 2e-1 2e-1 -5e-1 18 422 25 0 473 424 420 421 ?391 29 423 26 0 424 421 425
 0e0 2.2e0 -4e-1 18 424 27 0 482 426 422 423 ?391 29 425 28 0 426 423 427 0e0
 2e-1 -4e-1 18 426 29 0 481 428 424 425 ?391 29 427 30 0 428 425 429 2e-1 2.2e0
 -4e-1 18 428 31 0 483 430 426 427 ?391 29 429 32 0 430 427 0 2e-1 2e-1 -4e-1
 18 430 33 0 484 0 428 429 ?391 50 431 34 0 432 0 442 0 +0e0 2e-1 -5e-1 0e0 0e0
 -1e0 1e0 0e0 0e0 14 432 35 0 ?0 443 433 411 431 +0 0 0 443 413 15 433 36 0 441
 432 0 16 434 37 0 ?445 436 0 399 0 0 391 17 435 433 441 437 416 445 434 0 0 -
16 436 38 0 ?473 438 434 400 0 0 391 17 437 433 435 439 418 473 436 0 0 -16 438
 39 0 ?464 440 436 401 0 0 391 17 439 433 437 441 422 464 438 0 0 -16 440 40 0 ?
455 446 438 402 0 0 391 17 441 433 439 435 420 455 440 0 0 -50 442 41 0 443 431
 452 0 +0e0 2e-1 -5e-1 -1e0 0e0 0e0 0e0 1e0 0e0 14 443 42 0 ?432 453 444 411
 442 +0 0 432 453 413 15 444 43 0 451 443 0 17 445 444 451 447 418 435 434 0
 437 +16 446 44 0 ?447 448 440 404 0 0 391 17 447 444 445 449 416 460 446 0 435
 +16 448 45 0 ?481 450 446 407 0 0 391 17 449 444 447 451 424 481 448 0 0 -16
 450 46 0 ?474 456 448 403 0 0 391 17 451 444 449 445 426 474 450 0 0 -50 452
 47 0 453 442 461 0 +0e0 2.2e0 -5e-1 0e0 1e0 0e0 1e0 0e0 0e0 14 453 48 0 ?443
 462 454 411 452 +0 0 443 462 413 15 454 49 0 460 453 0 17 455 454 460 457 416
 441 440 0 447 +16 456 50 0 ?457 458 450 405 0 0 391 17 457 454 455 459 420 469
 456 0 441 +16 458 51 0 ?482 465 456 408 0 0 391 17 459 454 457 460 428 482 458
 0 0 -17 460 454 459 455 424 447 446 0 449 -50 461 52 0 462 452 470 0 +2e-1
 2.2e0 -5e-1 1e0 0e0 0e0 0e0 -1e0 0e0 14 462 53 0 ?453 471 463 411 461 +0 0 453
 471 413 15 463 54 0 469 462 0 17 464 463 469 466 420 439 438 0 457 +16 465 55
 0 ?466 467 458 406 0 0 391 17 466 463 464 468 422 477 465 0 439 +16 467 56 0 ?
483 475 465 409 0 0 391 17 468 463 466 469 430 483 467 0 0 -17 469 463 468 464
 428 457 456 0 459 -50 470 57 0 471 461 478 0 +2e-1 2e-1 -5e-1 0e0 -1e0 0e0
 -1e0 0e0 0e0 14 471 58 0 ?462 479 472 411 470 +0 0 462 479 413 15 472 59 0 477
 471 0 17 473 472 477 474 422 437 436 0 466 +17 474 472 473 476 418 451 450 0
 445 +16 475 60 0 ?484 0 467 410 0 0 391 17 476 472 474 477 426 484 475 0 451 -
17 477 472 476 473 430 466 465 0 468 -50 478 61 0 479 470 0 0 +0e0 2e-1 -4e-1
 0e0 0e0 -1e0 1e0 0e0 0e0 14 479 62 0 ?471 0 480 411 478 -0 0 471 0 413 15 480
 63 0 484 479 0 17 481 480 484 482 426 449 448 0 476 +17 482 480 481 483 424
 459 458 0 460 +17 483 480 482 484 428 468 467 0 469 +17 484 480 483 481 430
 476 475 0 477 +1 0 
